<svg width="24" height="24" viewBox="0 0 34 39" fill="none" xmlns="http://www.w3.org/2000/svg">
<path d="M33.7143 27.2485L30.0589 20.4999V13.4732C30.0589 6.45762 24.3513 0.75 17.3357 0.75C10.3201 0.75 4.61248 6.45762 4.61248 13.4732V20.4999L0.956904 27.2484C0.791127 27.5544 0.707691 27.8983 0.714771 28.2462C0.721852 28.5942 0.819206 28.9343 0.997294 29.2333C1.17538 29.5324 1.4281 29.78 1.73067 29.9519C2.03325 30.1239 2.37531 30.2143 2.72334 30.2143H10.0003C9.97997 30.4369 9.96972 30.6604 9.96954 30.8839C9.96954 32.8375 10.7456 34.7111 12.127 36.0925C13.5084 37.4739 15.382 38.25 17.3356 38.25C19.2892 38.25 21.1628 37.4739 22.5442 36.0925C23.9256 34.7111 24.7017 32.8375 24.7017 30.8839C24.7017 30.6579 24.6909 30.4349 24.671 30.2143H31.9479C32.2959 30.2142 32.6379 30.1238 32.9404 29.9518C33.243 29.7799 33.4956 29.5322 33.6737 29.2333C33.8517 28.9343 33.9491 28.5941 33.9562 28.2462C33.9632 27.8983 33.8798 27.5545 33.7141 27.2485H33.7143ZM22.0232 30.8839C22.0237 31.5281 21.8915 32.1655 21.6347 32.7563C21.3779 33.347 21.0021 33.8786 20.5308 34.3176C20.0594 34.7567 19.5026 35.0939 18.8951 35.3082C18.2877 35.5226 17.6425 35.6093 17 35.5632C16.3575 35.5171 15.7314 35.339 15.1607 35.0401C14.5901 34.7412 14.0872 34.3279 13.6834 33.826C13.2796 33.3241 12.9836 32.7443 12.8139 32.1229C12.6441 31.5015 12.6043 30.8518 12.6968 30.2143H21.9745C22.0067 30.4361 22.0229 30.6598 22.0232 30.8839ZM3.84758 27.5357L7.29106 21.1787V13.4732C7.29106 10.8092 8.34933 8.25432 10.2331 6.37058C12.1168 4.48684 14.6717 3.42857 17.3357 3.42857C19.9997 3.42857 22.5546 4.48684 24.4383 6.37058C26.3221 8.25432 27.3803 10.8092 27.3803 13.4732V21.1787L30.8236 27.5357H3.84758Z" fill="white"/>
</svg>
