<svg width="60" height="60" viewBox="0 0 60 60" fill="none" xmlns="http://www.w3.org/2000/svg">
<path d="M20.625 53.0068C22.0292 53.0068 23.1675 51.8685 23.1675 50.4643C23.1675 49.0601 22.0292 47.9218 20.625 47.9218C19.2208 47.9218 18.0825 49.0601 18.0825 50.4643C18.0825 51.8685 19.2208 53.0068 20.625 53.0068Z" stroke="white" stroke-width="1.335" stroke-linecap="round" stroke-linejoin="round"/>
<path d="M46.875 53.0068C48.2792 53.0068 49.4175 51.8685 49.4175 50.4643C49.4175 49.0601 48.2792 47.9218 46.875 47.9218C45.4708 47.9218 44.3325 49.0601 44.3325 50.4643C44.3325 51.8685 45.4708 53.0068 46.875 53.0068Z" stroke="white" stroke-width="1.33" stroke-linecap="round" stroke-linejoin="round"/>
<path d="M5.625 11.0893H13.125L18.75 42.9643H48.75" stroke="white" stroke-width="1.5" stroke-linecap="round" stroke-linejoin="round"/>
<path d="M18.75 35.4643H47.9813C48.1981 35.4644 48.4082 35.3894 48.576 35.252C48.7437 35.1147 48.8586 34.9234 48.9012 34.7108L52.2762 17.8358C52.3034 17.6997 52.3001 17.5593 52.2665 17.4246C52.2328 17.29 52.1698 17.1645 52.0817 17.0572C51.9937 16.9499 51.883 16.8635 51.7575 16.8042C51.6321 16.7449 51.495 16.7142 51.3562 16.7143H15" stroke="white" stroke-width="1.5" stroke-linecap="round" stroke-linejoin="round"/>
</svg>
