<svg width="60" height="60" viewBox="0 0 60 60" fill="none" xmlns="http://www.w3.org/2000/svg">
<path d="M20.625 52.3393C21.6605 52.3393 22.5 51.4998 22.5 50.4643C22.5 49.4288 21.6605 48.5893 20.625 48.5893C19.5895 48.5893 18.75 49.4288 18.75 50.4643C18.75 51.4998 19.5895 52.3393 20.625 52.3393Z" stroke="white" stroke-width="2.4" stroke-linecap="round" stroke-linejoin="round"/>
<path d="M46.875 52.3393C47.9105 52.3393 48.75 51.4998 48.75 50.4643C48.75 49.4288 47.9105 48.5893 46.875 48.5893C45.8395 48.5893 45 49.4288 45 50.4643C45 51.4998 45.8395 52.3393 46.875 52.3393Z" stroke="white" stroke-width="2.4" stroke-linecap="round" stroke-linejoin="round"/>
<path d="M5.625 11.0893H13.125L18.75 42.9643H48.75" stroke="white" stroke-width="2.4" stroke-linecap="round" stroke-linejoin="round"/>
<path d="M18.75 35.4643H47.9813C48.1981 35.4644 48.4082 35.3894 48.576 35.252C48.7437 35.1147 48.8586 34.9234 48.9012 34.7108L52.2762 17.8358C52.3034 17.6997 52.3001 17.5593 52.2665 17.4246C52.2328 17.29 52.1698 17.1645 52.0817 17.0572C51.9937 16.9499 51.883 16.8635 51.7575 16.8042C51.6321 16.7449 51.495 16.7142 51.3562 16.7143H15" stroke="white" stroke-width="2.4" stroke-linecap="round" stroke-linejoin="round"/>
<rect x="30.1714" y="1.02875" width="27.4286" height="27.4286" rx="13.7143" fill="#EDC834"/>
<path d="M40.0924 19.5287V18.1726L43.6903 14.6455C44.0344 14.298 44.3212 13.9893 44.5506 13.7194C44.78 13.4496 44.952 13.1881 45.0667 12.9351C45.1814 12.6821 45.2388 12.4122 45.2388 12.1254C45.2388 11.7982 45.1646 11.5182 45.0161 11.2854C44.8677 11.0493 44.6636 10.8671 44.4038 10.7389C44.144 10.6107 43.8489 10.5466 43.5182 10.5466C43.1775 10.5466 42.879 10.6174 42.6226 10.7591C42.3662 10.8974 42.1671 11.0948 42.0254 11.3512C41.8871 11.6076 41.818 11.9129 41.818 12.2671H40.0316C40.0316 11.6093 40.1818 11.0374 40.482 10.5517C40.7823 10.0659 41.1955 9.6897 41.7218 9.42319C42.2515 9.15668 42.8587 9.02342 43.5435 9.02342C44.2385 9.02342 44.8491 9.1533 45.3754 9.41307C45.9017 9.67283 46.3099 10.0287 46.6 10.4808C46.8935 10.9329 47.0403 11.449 47.0403 12.0293C47.0403 12.4172 46.966 12.7985 46.8176 13.1729C46.6692 13.5474 46.4077 13.9623 46.0332 14.4178C45.6622 14.8732 45.1409 15.4248 44.4696 16.0725L42.6833 17.8892V17.96H47.1971V19.5287H40.0924Z" fill="white"/>
</svg>
