<svg width="23" height="23" viewBox="0 0 23 23" fill="none" xmlns="http://www.w3.org/2000/svg">
<path d="M16.292 9.5835C17.8798 9.5835 19.167 8.29631 19.167 6.7085C19.167 5.12068 17.8798 3.8335 16.292 3.8335C14.7042 3.8335 13.417 5.12068 13.417 6.7085C13.417 8.29631 14.7042 9.5835 16.292 9.5835Z" stroke="black" stroke-width="1.5" stroke-linecap="round" stroke-linejoin="round"/>
<path d="M6.7085 19.167C8.29631 19.167 9.5835 17.8798 9.5835 16.292C9.5835 14.7042 8.29631 13.417 6.7085 13.417C5.12068 13.417 3.8335 14.7042 3.8335 16.292C3.8335 17.8798 5.12068 19.167 6.7085 19.167Z" stroke="black" stroke-width="1.5" stroke-linecap="round" stroke-linejoin="round"/>
<path d="M13.4168 13.4168H19.1668V18.2085C19.1668 18.4627 19.0659 18.7064 18.8861 18.8861C18.7064 19.0659 18.4627 19.1668 18.2085 19.1668H14.3752C14.121 19.1668 13.8772 19.0659 13.6975 18.8861C13.5178 18.7064 13.4168 18.4627 13.4168 18.2085V13.4168ZM3.8335 3.8335H9.5835V8.62516C9.5835 8.87933 9.48253 9.12308 9.30281 9.30281C9.12308 9.48253 8.87933 9.5835 8.62516 9.5835H4.79183C4.53766 9.5835 4.29391 9.48253 4.11419 9.30281C3.93446 9.12308 3.8335 8.87933 3.8335 8.62516V3.8335Z" stroke="black" stroke-width="1.5" stroke-linecap="round" stroke-linejoin="round"/>
</svg>
