<svg width="60" height="53" viewBox="0 0 60 53" fill="none" xmlns="http://www.w3.org/2000/svg">
<path d="M30.0029 49.9995L28.5869 51.4155C28.7727 51.6017 28.9934 51.7495 29.2364 51.8503C29.4794 51.9511 29.7399 52.003 30.0029 52.003C30.266 52.003 30.5265 51.9511 30.7695 51.8503C31.0125 51.7495 31.2332 51.6017 31.4189 51.4155L30.0029 49.9995ZM30.0029 9.99945L28.5869 11.4155C28.7727 11.6017 28.9934 11.7495 29.2364 11.8503C29.4794 11.9511 29.7399 12.003 30.0029 12.003C30.266 12.003 30.5265 11.9511 30.7695 11.8503C31.0125 11.7495 31.2332 11.6017 31.4189 11.4155L30.0029 9.99945ZM31.4189 48.5835L7.55893 24.7275L4.73093 27.5555L28.5869 51.4155L31.4189 48.5835ZM52.447 24.7275L28.5869 48.5835L31.4189 51.4155L55.275 27.5555L52.447 24.7275ZM24.7309 7.55545L28.5869 11.4155L31.4189 8.58345L27.5589 4.72745L24.7309 7.55545ZM31.4189 11.4155L35.275 7.55545L32.4469 4.72745L28.5869 8.58345L31.4189 11.4155ZM43.859 -0.000549316C39.579 -0.000549316 35.475 1.69945 32.4469 4.72745L35.275 7.55545C37.552 5.27947 40.6395 4.00048 43.859 3.99945V-0.000549316ZM56.003 16.1435C56.003 19.3635 54.723 22.4515 52.443 24.7275L55.275 27.5555C58.3015 24.5287 60.0022 20.4238 60.003 16.1435H56.003ZM60.003 16.1435C60.003 11.8618 58.3021 7.75551 55.2745 4.72792C52.2469 1.70033 48.1406 -0.000549316 43.859 -0.000549316V3.99945C47.0797 3.99945 50.1686 5.27891 52.4461 7.55635C54.7235 9.83379 56.003 12.9227 56.003 16.1435H60.003ZM16.1469 3.99945C19.3669 3.99945 22.4549 5.27945 24.7309 7.55945L27.5589 4.72745C24.5321 1.7009 20.4273 0.000263068 16.1469 -0.000549316V3.99945ZM4.00293 16.1435C4.00293 12.9227 5.28239 9.83379 7.55983 7.55635C9.83727 5.27891 12.9261 3.99945 16.1469 3.99945V-0.000549316C11.8653 -0.000549316 7.75899 1.70033 4.7314 4.72792C1.70381 7.75551 0.00292969 11.8618 0.00292969 16.1435H4.00293ZM7.55893 24.7275C6.43089 23.6005 5.5399 22.2624 4.92906 20.7896C4.31823 19.3167 4.00353 17.738 4.00293 16.1435H0.00292969C0.00292969 20.4235 1.70293 24.5275 4.73093 27.5555L7.55893 24.7275Z" fill="#EDC834"/>
</svg>
