<svg width="23" height="23" viewBox="0 0 23 23" fill="none" xmlns="http://www.w3.org/2000/svg">
<g clip-path="url(#clip0_371_1460)">
<path fill-rule="evenodd" clip-rule="evenodd" d="M10.35 2.53958C10.6818 2.29076 11.0853 2.15625 11.5 2.15625C11.9147 2.15625 12.3182 2.29076 12.65 2.53958L19.3583 7.57083C19.5964 7.74937 19.7896 7.98087 19.9227 8.24701C20.0557 8.51315 20.125 8.80661 20.125 9.10417V18.2083C20.125 18.7167 19.9231 19.2042 19.5636 19.5636C19.2042 19.9231 18.7167 20.125 18.2083 20.125H4.79167C4.28333 20.125 3.79582 19.9231 3.43638 19.5636C3.07693 19.2042 2.875 18.7167 2.875 18.2083V9.10417C2.875 8.80661 2.94428 8.51315 3.07735 8.24701C3.21042 7.98087 3.40362 7.74937 3.64167 7.57083L10.35 2.53958ZM11.5 4.07292L4.79167 9.10417V18.2083H18.2083V9.10417L11.5 4.07292Z" fill="black"/>
</g>
<defs>
<clipPath id="clip0_371_1460">
<rect width="23" height="23" fill="white"/>
</clipPath>
</defs>
</svg>
