<svg width="24" height="24" viewBox="0 0 46 60" fill="none" xmlns="http://www.w3.org/2000/svg">
<path opacity="0.3" d="M5.71436 54.2856H40.0001V25.7142H5.71436V54.2856ZM22.8572 34.2856C26.0001 34.2856 28.5715 36.857 28.5715 39.9999C28.5715 43.1427 26.0001 45.7142 22.8572 45.7142C19.7144 45.7142 17.1429 43.1427 17.1429 39.9999C17.1429 36.857 19.7144 34.2856 22.8572 34.2856Z" fill="white"/>
<path d="M40 20H37.1429V14.2857C37.1429 6.4 30.7429 0 22.8571 0C14.9714 0 8.57143 6.4 8.57143 14.2857V20H5.71429C2.57143 20 0 22.5714 0 25.7143V54.2857C0 57.4286 2.57143 60 5.71429 60H40C43.1429 60 45.7143 57.4286 45.7143 54.2857V25.7143C45.7143 22.5714 43.1429 20 40 20ZM14.2857 14.2857C14.2857 9.54286 18.1143 5.71429 22.8571 5.71429C27.6 5.71429 31.4286 9.54286 31.4286 14.2857V20H14.2857V14.2857ZM40 54.2857H5.71429V25.7143H40V54.2857ZM22.8571 45.7143C26 45.7143 28.5714 43.1429 28.5714 40C28.5714 36.8571 26 34.2857 22.8571 34.2857C19.7143 34.2857 17.1429 36.8571 17.1429 40C17.1429 43.1429 19.7143 45.7143 22.8571 45.7143Z" fill="white"/>
</svg>
