<svg width="24" height="24" viewBox="0 0 46 46" fill="none" xmlns="http://www.w3.org/2000/svg">
<path d="M42.2144 45.5L26.4644 29.75C25.2144 30.75 23.7769 31.5417 22.1519 32.125C20.5269 32.7083 18.7977 33 16.9644 33C12.4227 33 8.57936 31.4267 5.43436 28.28C2.28936 25.1333 0.716022 21.29 0.714355 16.75C0.714355 12.2083 2.28769 8.365 5.43436 5.22C8.58102 2.075 12.4244 0.501667 16.9644 0.5C21.506 0.5 25.3494 2.07333 28.4944 5.22C31.6394 8.36667 33.2127 12.21 33.2144 16.75C33.2144 18.5833 32.9227 20.3125 32.3394 21.9375C31.756 23.5625 30.9644 25 29.9644 26.25L45.7144 42L42.2144 45.5ZM16.9644 28C20.0894 28 22.746 26.9058 24.9344 24.7175C27.1227 22.5292 28.216 19.8733 28.2144 16.75C28.2144 13.625 27.1202 10.9683 24.9319 8.78C22.7435 6.59167 20.0877 5.49833 16.9644 5.5C13.8394 5.5 11.1827 6.59417 8.99436 8.7825C6.80602 10.9708 5.71269 13.6267 5.71436 16.75C5.71436 19.875 6.80852 22.5317 8.99686 24.72C11.1852 26.9083 13.841 28.0017 16.9644 28Z" fill="white"/>
</svg>
