<svg width="23" height="23" viewBox="0 0 23 23" fill="none" xmlns="http://www.w3.org/2000/svg">
<path d="M15.8125 6.46875H20.8438V11.5" stroke="black" stroke-width="1.5" stroke-linecap="round" stroke-linejoin="round"/>
<path d="M2.15625 16.5312L7.60842 11.0791C7.74191 10.9456 7.90039 10.8396 8.07482 10.7674C8.24924 10.6951 8.4362 10.6579 8.625 10.6579C8.8138 10.6579 9.00076 10.6951 9.17518 10.7674C9.34961 10.8396 9.50809 10.9456 9.64158 11.0791L11.9209 13.3584C12.0544 13.4919 12.2129 13.5979 12.3873 13.6701C12.5617 13.7424 12.7487 13.7796 12.9375 13.7796C13.1263 13.7796 13.3133 13.7424 13.4877 13.6701C13.6621 13.5979 13.8206 13.4919 13.9541 13.3584L20.125 7.1875" stroke="black" stroke-width="1.5" stroke-linecap="round" stroke-linejoin="round"/>
</svg>
