<svg width="24" height="24" viewBox="0 0 61 60" fill="none" xmlns="http://www.w3.org/2000/svg">
<path fill-rule="evenodd" clip-rule="evenodd" d="M16.881 13.3333C16.881 9.79711 18.2858 6.40573 20.7863 3.90524C23.2867 1.40476 26.6781 0 30.2144 0C33.7506 0 37.142 1.40476 39.6424 3.90524C42.1429 6.40573 43.5477 9.79711 43.5477 13.3333C43.5477 16.8696 42.1429 20.2609 39.6424 22.7614C37.142 25.2619 33.7506 26.6667 30.2144 26.6667C26.6781 26.6667 23.2867 25.2619 20.7863 22.7614C18.2858 20.2609 16.881 16.8696 16.881 13.3333ZM16.881 33.3333C12.4607 33.3333 8.22152 35.0893 5.09591 38.2149C1.9703 41.3405 0.214355 45.5797 0.214355 50C0.214355 52.6522 1.26792 55.1957 3.14329 57.0711C5.01865 58.9464 7.56219 60 10.2144 60H50.2144C52.8665 60 55.4101 58.9464 57.2854 57.0711C59.1608 55.1957 60.2144 52.6522 60.2144 50C60.2144 45.5797 58.4584 41.3405 55.3328 38.2149C52.2072 35.0893 47.968 33.3333 43.5477 33.3333H16.881Z" fill="white"/>
</svg>
